<?xml version="1.0" encoding="UTF-8" standalone="no"?>
<!DOCTYPE svg PUBLIC "-//W3C//DTD SVG 1.1//EN" "http://www.w3.org/Graphics/SVG/1.1/DTD/svg11.dtd">
<svg width="100%" height="100%" viewBox="0 0 512 512" version="1.1" xmlns="http://www.w3.org/2000/svg" xmlns:xlink="http://www.w3.org/1999/xlink" xml:space="preserve" xmlns:serif="http://www.serif.com/" style="fill-rule:evenodd;clip-rule:evenodd;stroke-linejoin:round;stroke-miterlimit:2;">
    <g transform="matrix(1,0,0,1,26.3672,393.305)">
        <g transform="matrix(4.53097,0,0,2.44976,331.58,-461.898)">
            <rect x="-79" y="28" width="113" height="209" style="fill:white;"/>
        </g>
        <path d="M162.539,-109.844L217.461,-109.844L217.461,-164.766L162.539,-164.766L162.539,-109.844ZM162.539,-82.383L162.539,-50.84C162.539,-35.007 156.818,-21.431 145.376,-10.112C133.934,1.206 120.173,6.865 104.092,6.865C88.011,6.865 74.281,1.175 62.9,-10.205C51.52,-21.585 45.83,-35.378 45.83,-51.582C45.83,-67.415 51.52,-81.084 62.9,-92.588C74.281,-104.092 87.826,-109.844 103.535,-109.844L135.078,-109.844L135.078,-164.766L103.535,-164.766C87.826,-164.766 74.281,-170.518 62.9,-182.021C51.52,-193.525 45.83,-207.256 45.83,-223.213C45.83,-239.294 51.52,-253.024 62.9,-264.404C74.281,-275.785 88.011,-281.475 104.092,-281.475C120.173,-281.475 133.934,-275.815 145.376,-264.497C156.818,-253.179 162.539,-239.603 162.539,-223.77L162.539,-192.227L217.461,-192.227L217.461,-223.77C217.461,-239.603 223.182,-253.179 234.624,-264.497C246.066,-275.815 259.827,-281.475 275.908,-281.475C292.113,-281.475 305.874,-275.785 317.192,-264.404C328.511,-253.024 334.17,-239.294 334.17,-223.213C334.17,-207.256 328.511,-193.525 317.192,-182.021C305.874,-170.518 292.298,-164.766 276.465,-164.766L244.922,-164.766L244.922,-109.844L276.465,-109.844C292.298,-109.844 305.874,-104.092 317.192,-92.588C328.511,-81.084 334.17,-67.415 334.17,-51.582C334.17,-35.378 328.511,-21.585 317.192,-10.205C305.874,1.175 292.113,6.865 275.908,6.865C259.827,6.865 246.066,1.206 234.624,-10.112C223.182,-21.431 217.461,-35.007 217.461,-50.84L217.461,-82.383L162.539,-82.383ZM135.078,-192.227L135.078,-223.213C135.078,-231.748 132.048,-239.015 125.986,-245.015C119.925,-251.014 112.627,-254.014 104.092,-254.014C95.68,-254.014 88.444,-251.014 82.383,-245.015C76.322,-239.015 73.291,-231.748 73.291,-223.213C73.291,-214.678 76.322,-207.38 82.383,-201.318C88.444,-195.257 95.742,-192.227 104.277,-192.227L135.078,-192.227ZM135.078,-82.383L104.277,-82.383C95.742,-82.383 88.444,-79.352 82.383,-73.291C76.322,-67.23 73.291,-59.993 73.291,-51.582C73.291,-43.047 76.322,-35.749 82.383,-29.688C88.444,-23.626 95.742,-20.596 104.277,-20.596C112.689,-20.596 119.925,-23.626 125.986,-29.688C132.048,-35.749 135.078,-42.985 135.078,-51.396L135.078,-82.383ZM244.922,-192.227L275.908,-192.227C284.32,-192.227 291.556,-195.257 297.617,-201.318C303.678,-207.38 306.709,-214.678 306.709,-223.213C306.709,-231.748 303.709,-239.015 297.71,-245.015C291.711,-251.014 284.443,-254.014 275.908,-254.014C267.373,-254.014 260.075,-251.014 254.014,-245.015C247.952,-239.015 244.922,-231.748 244.922,-223.213L244.922,-192.227ZM244.922,-82.383L244.922,-51.396C244.922,-42.985 247.952,-35.749 254.014,-29.688C260.075,-23.626 267.373,-20.596 275.908,-20.596C284.443,-20.596 291.711,-23.626 297.71,-29.688C303.709,-35.749 306.709,-43.047 306.709,-51.582C306.709,-59.993 303.678,-67.23 297.617,-73.291C291.556,-79.352 284.32,-82.383 275.908,-82.383L244.922,-82.383Z" style="fill:rgb(34,34,34);fill-rule:nonzero;"/>
        <rect x="377.439" y="-272.012" width="35.996" height="272.012" style="fill:rgb(34,34,34);"/>
    </g>
</svg>
