<?xml version="1.0" encoding="UTF-8" standalone="no"?>
<!DOCTYPE svg PUBLIC "-//W3C//DTD SVG 1.1//EN" "http://www.w3.org/Graphics/SVG/1.1/DTD/svg11.dtd">
<svg width="100%" height="100%" viewBox="0 0 512 512" version="1.1" xmlns="http://www.w3.org/2000/svg" xmlns:xlink="http://www.w3.org/1999/xlink" xml:space="preserve" xmlns:serif="http://www.serif.com/" style="fill-rule:evenodd;clip-rule:evenodd;stroke-linejoin:round;stroke-miterlimit:2;">
    <g id="Artboard1" transform="matrix(1.28,0,0,2.13333,0,0)">
        <g transform="matrix(0.78125,0,0,0.468751,0,0)">
            <rect x="0" y="0" width="512" height="512" style="fill:white;"/>
        </g>
        <rect x="0" y="0" width="400" height="240" style="fill:none;"/>
        <g transform="matrix(0.78125,0,0,0.468751,-11.2111,63.8365)">
            <g transform="matrix(480,0,0,480,30.3501,293.253)">
                <path d="M0.428,-0.289L0.572,-0.289L0.572,-0.434L0.428,-0.434L0.428,-0.289ZM0.428,-0.217L0.428,-0.134C0.428,-0.092 0.413,-0.056 0.383,-0.027C0.352,0.003 0.316,0.018 0.274,0.018C0.232,0.018 0.195,0.003 0.166,-0.027C0.136,-0.057 0.121,-0.093 0.121,-0.136C0.121,-0.177 0.136,-0.213 0.166,-0.244C0.195,-0.274 0.231,-0.289 0.272,-0.289L0.355,-0.289L0.355,-0.434L0.272,-0.434C0.231,-0.434 0.195,-0.449 0.166,-0.479C0.136,-0.509 0.121,-0.545 0.121,-0.587C0.121,-0.63 0.136,-0.666 0.166,-0.696C0.195,-0.726 0.232,-0.741 0.274,-0.741C0.316,-0.741 0.352,-0.726 0.383,-0.696C0.413,-0.666 0.428,-0.631 0.428,-0.589L0.428,-0.506L0.572,-0.506L0.572,-0.589C0.572,-0.631 0.587,-0.666 0.617,-0.696C0.648,-0.726 0.684,-0.741 0.726,-0.741C0.769,-0.741 0.805,-0.726 0.835,-0.696C0.865,-0.666 0.879,-0.63 0.879,-0.587C0.879,-0.545 0.865,-0.509 0.835,-0.479C0.805,-0.449 0.769,-0.434 0.728,-0.434L0.645,-0.434L0.645,-0.289L0.728,-0.289C0.769,-0.289 0.805,-0.274 0.835,-0.244C0.865,-0.213 0.879,-0.177 0.879,-0.136C0.879,-0.093 0.865,-0.057 0.835,-0.027C0.805,0.003 0.769,0.018 0.726,0.018C0.684,0.018 0.648,0.003 0.617,-0.027C0.587,-0.056 0.572,-0.092 0.572,-0.134L0.572,-0.217L0.428,-0.217ZM0.355,-0.506L0.355,-0.587C0.355,-0.61 0.347,-0.629 0.332,-0.645C0.316,-0.661 0.296,-0.668 0.274,-0.668C0.252,-0.668 0.233,-0.661 0.217,-0.645C0.201,-0.629 0.193,-0.61 0.193,-0.587C0.193,-0.565 0.201,-0.546 0.217,-0.53C0.233,-0.514 0.252,-0.506 0.274,-0.506L0.355,-0.506ZM0.355,-0.217L0.274,-0.217C0.252,-0.217 0.233,-0.209 0.217,-0.193C0.201,-0.177 0.193,-0.158 0.193,-0.136C0.193,-0.113 0.201,-0.094 0.217,-0.078C0.233,-0.062 0.252,-0.054 0.274,-0.054C0.297,-0.054 0.316,-0.062 0.332,-0.078C0.347,-0.094 0.355,-0.113 0.355,-0.135L0.355,-0.217ZM0.645,-0.506L0.726,-0.506C0.748,-0.506 0.767,-0.514 0.783,-0.53C0.799,-0.546 0.807,-0.565 0.807,-0.587C0.807,-0.61 0.799,-0.629 0.783,-0.645C0.768,-0.661 0.749,-0.668 0.726,-0.668C0.704,-0.668 0.684,-0.661 0.668,-0.645C0.653,-0.629 0.645,-0.61 0.645,-0.587L0.645,-0.506ZM0.645,-0.217L0.645,-0.135C0.645,-0.113 0.653,-0.094 0.668,-0.078C0.684,-0.062 0.704,-0.054 0.726,-0.054C0.749,-0.054 0.768,-0.062 0.783,-0.078C0.799,-0.094 0.807,-0.113 0.807,-0.136C0.807,-0.158 0.799,-0.177 0.783,-0.193C0.767,-0.209 0.748,-0.217 0.726,-0.217L0.645,-0.217Z" style="fill:rgb(38,38,38);fill-rule:nonzero;"/>
            </g>
        </g>
    </g>
</svg>
